<?xml version="1.0" encoding="UTF-8" standalone="no"?>
<svg
   xmlns:dc="http://purl.org/dc/elements/1.1/"
   xmlns:cc="http://creativecommons.org/ns#"
   xmlns:rdf="http://www.w3.org/1999/02/22-rdf-syntax-ns#"
   xmlns:svg="http://www.w3.org/2000/svg"
   xmlns="http://www.w3.org/2000/svg"
   id="svg3782"
   version="1.1"
   height="13"
   width="12">
  <metadata
     id="metadata3788">
    <rdf:RDF>
      <cc:Work
         rdf:about="">
        <dc:format>image/svg+xml</dc:format>
        <dc:type
           rdf:resource="http://purl.org/dc/dcmitype/StillImage" />
        <dc:title></dc:title>
      </cc:Work>
    </rdf:RDF>
  </metadata>
  <defs
     id="defs3786" />
  <g
     id="g3780"
     fill="none"
     stroke="#6c6c6c"
     stroke-width="2">
    <path
       id="path3776"
       d="M11.29 11.71l-4-4" />
    <circle
       id="circle3778"
       r="4"
       cy="5"
       cx="5" />
  </g>
  <path
     id="path3790"
     d="M 9.0350872,10.863941 7.4969941,9.3257848 7.3520112,9.4038209 C 6.0437499,10.107983 4.4290946,10.182308 3.0633785,9.6012327 0.9505722,8.7022901 -0.28005523,6.501702 0.06566707,4.2407734 0.1567722,3.6449711 0.34491362,3.0996035 0.64375457,2.5650651 1.3556645,1.2916681 2.6128949,0.37847586 4.0362009,0.10095365 4.5520154,3.7796065e-4 5.2106434,-0.01615433 5.7162762,0.05878189 7.1745777,0.2749063 8.4526018,1.1108021 9.2353124,2.360419 9.6548312,3.0301913 9.8995347,3.7624372 9.9736751,4.5698818 9.9998507,4.854955 9.983838,5.4384495 9.9423802,5.710246 9.8212679,6.5042552 9.5280088,7.2426988 9.0870254,7.8640789 l -0.09553,0.1346093 0.2057937,0.2062525 c 0.1131864,0.1134389 0.7846622,0.7849554 1.4921679,1.4922589 0.707507,0.7073034 1.286375,1.2933124 1.286375,1.3022404 0,0.01586 -1.378902,1.402656 -1.394674,1.402656 -0.0044,0 -0.7001196,-0.69217 -1.5460708,-1.538155 z M 5.2777715,7.9931951 C 6.3449721,7.885238 7.2518227,7.2519304 7.7097201,6.2948212 7.8241339,6.0556704 7.8903606,5.8600863 7.9485421,5.5895191 7.9884556,5.4039056 7.9916553,5.3608171 7.9919887,5.004439 7.9923061,4.6654012 7.9879626,4.5980344 7.9554031,4.4369922 7.7311085,3.3276124 6.9342252,2.4440571 5.8671664,2.1216308 5.5452025,2.0243449 5.4102128,2.0068744 4.9869297,2.0077097 4.6416476,2.008391 4.5934965,2.0120105 4.409522,2.0511111 3.324561,2.2817012 2.4681436,3.0477881 2.1364444,4.0844365 1.8009237,5.1330279 2.0670683,6.2806549 2.8307205,7.0781845 3.465029,7.7406326 4.3826328,8.0837464 5.2777715,7.9931951 Z"
     style="fill:#000000;stroke-width:0.01602959" />
</svg>
