<?xml version="1.0" encoding="UTF-8" standalone="no"?>
<svg
   xmlns:dc="http://purl.org/dc/elements/1.1/"
   xmlns:cc="http://creativecommons.org/ns#"
   xmlns:rdf="http://www.w3.org/1999/02/22-rdf-syntax-ns#"
   xmlns:svg="http://www.w3.org/2000/svg"
   xmlns="http://www.w3.org/2000/svg"
   id="svg3858"
   xml:space="preserve"
   style="enable-background:new 0 0 24 24;"
   viewBox="0 0 24 24"
   height="1000px"
   width="1000px"
   y="0px"
   x="0px"
   version="1.1"><metadata
   id="metadata3864"><rdf:RDF><cc:Work
       rdf:about=""><dc:format>image/svg+xml</dc:format><dc:type
         rdf:resource="http://purl.org/dc/dcmitype/StillImage" /><dc:title></dc:title></cc:Work></rdf:RDF></metadata><defs
   id="defs3862" />
<g
   style="opacity:0.75;"
   id="Icons">
	<path
   d="M6,15h12c0.553,0,1,0.447,1,1v1c0,0.553-0.447,1-1,1H6c-0.553,0-1-0.447-1-1v-1C5,15.447,5.447,15,6,15z M5,11v1   c0,0.553,0.447,1,1,1h12c0.553,0,1-0.447,1-1v-1c0-0.553-0.447-1-1-1H6C5.447,10,5,10.447,5,11z M5,6v1c0,0.553,0.447,1,1,1h12   c0.553,0,1-0.447,1-1V6c0-0.553-0.447-1-1-1H6C5.447,5,5,5.447,5,6z"
   id="menu" />
</g>
<g
   style="display:none;"
   id="Guides">
</g>
<path
   id="path3866"
   d="M 5.3276841,17.605757 C 5.0924568,17.326205 5.0644068,17.206189 5.0644068,16.47929 c 0,-0.763626 0.018252,-0.831831 0.297262,-1.110842 l 0.2972621,-0.297262 h 6.3195931 c 4.332439,0 6.384153,0.03455 6.524907,0.109881 0.649434,0.347567 0.649434,2.28013 0,2.627697 -0.140788,0.07535 -2.202108,0.10988 -6.558892,0.10988 H 5.5909614 Z"
   style="fill:#000000;stroke-width:0.10169491" /><path
   id="path3868"
   d="m 5.3616688,12.638331 c -0.2766927,-0.276692 -0.297262,-0.351042 -0.297262,-1.074482 0,-0.78102 0.099047,-1.115857 0.397967,-1.345361 0.2174046,-0.166917 12.7307152,-0.186561 13.0410572,-0.02047 0.432124,0.231266 0.639923,1.371024 0.383875,2.105522 -0.229298,0.657766 0.05187,0.632055 -6.91189,0.632055 H 5.6589309 Z"
   style="fill:#000000;stroke-width:0.10169491" /><path
   id="path3870"
   d="M 5.3616688,7.6552803 C 5.0817917,7.3754032 5.0644068,7.30959 5.0644068,6.5299507 c 0,-0.9605669 0.091659,-1.1851704 0.5642413,-1.3826278 0.5203378,-0.217411 12.1925629,-0.2128671 12.7138719,0.00495 0.495853,0.2071806 0.694724,0.7087521 0.625072,1.5764822 -0.04616,0.5750663 -0.09272,0.6936429 -0.369437,0.9408891 L 18.281537,7.9525424 H 11.970234 5.6589309 Z"
   style="fill:#000000;stroke-width:0.10169491" /></svg>
